<svg width="94" height="32" viewBox="0 0 94 32" fill="none" xmlns="http://www.w3.org/2000/svg">
<path d="M28.0739 20.438C30.4177 20.438 31.9684 20.438 32.3942 20.0357C32.7966 19.6528 32.7966 18.1295 32.7966 16.0201C32.7966 13.9107 32.7966 12.3873 32.3942 12.0045C31.9685 11.6021 30.4176 11.6021 28.0739 11.6021L15.7729 11.606C13.4291 11.606 11.8784 11.606 11.4526 12.0084C11.0503 12.3912 11.0503 13.9146 11.0503 16.024C11.0503 18.1334 11.0503 19.6568 11.4526 20.0396C11.8784 20.4419 13.4292 20.4419 15.7729 20.4419H17.5268L28.0739 20.438Z" fill="black"/>
<path d="M58.9531 12.008C58.5508 12.3908 58.5508 13.9142 58.5508 16.0236C58.5508 18.133 58.5508 19.6564 58.9531 20.0392C59.3242 20.3908 60.5469 20.4337 62.4062 20.4415H65.0234H65.1992H75.5742C77.918 20.4415 79.4687 20.4415 79.8945 20.0392C80.2968 19.6564 80.2968 18.133 80.2968 16.0236C80.2968 13.9142 80.2968 12.3908 79.8945 12.008C79.4687 11.6057 77.9179 11.6057 75.5742 11.6057H63.2732C60.9294 11.6057 59.3789 11.6057 58.9531 12.008Z" fill="black"/>
<path d="M26.5161 9.56202H38.8171C41.1609 9.56202 42.7116 9.56202 43.1374 9.15968C43.5397 8.77687 43.5397 7.25738 43.5397 5.14798C43.5397 3.03858 43.5397 1.51518 43.1374 1.13238C42.7116 0.730041 41.1608 0.730042 38.8171 0.730042L26.5161 0.726135C24.1723 0.726135 22.6216 0.726135 22.1958 1.12848C21.7935 1.51129 21.7935 3.03468 21.7935 5.14408C21.7935 7.25348 21.7935 8.77688 22.1958 9.15578C22.6216 9.56203 24.1724 9.56202 26.5161 9.56202Z" fill="black"/>
<path d="M50.2661 9.56202H62.5671C64.9148 9.56202 66.4616 9.56202 66.8874 9.15968C67.2897 8.77687 67.2897 7.25738 67.2897 5.14798C67.2897 3.03858 67.2897 1.51518 66.8874 1.13238C66.4616 0.730041 64.9108 0.730042 62.5671 0.730042L50.2661 0.726135C47.9184 0.726135 46.3716 0.726135 45.9458 1.12848C45.5435 1.51129 45.5435 3.03468 45.5435 5.14408C45.5435 7.25348 45.5435 8.77688 45.9458 9.15578C46.3716 9.56203 47.9224 9.56202 50.2661 9.56202Z" fill="black"/>
<path d="M51.8239 20.438C54.1677 20.438 55.7184 20.438 56.1442 20.0357C56.5466 19.6528 56.5466 18.1295 56.5466 16.0201C56.5466 13.9107 56.5466 12.3873 56.1442 12.0045C55.7184 11.6021 54.1676 11.6021 51.8239 11.6021L39.5229 11.606C37.1752 11.606 35.6284 11.606 35.2026 12.0084C34.8003 12.3912 34.8003 13.9146 34.8003 16.024C34.8003 18.1334 34.8003 19.6568 35.2026 20.0396C35.6284 20.4419 37.1792 20.4419 39.5229 20.4419H41.2768L51.8239 20.438Z" fill="black"/>
<path d="M41.2769 22.438H28.9719C26.6281 22.438 25.0774 22.438 24.6516 22.8403C24.2493 23.2231 24.2493 24.7465 24.2493 26.8559C24.2493 28.9653 24.2493 30.4887 24.6516 30.8676C25.0774 31.27 26.6282 31.27 28.9719 31.27H41.2729C43.6167 31.27 45.1674 31.27 45.5932 30.8676C45.9995 30.4887 45.9995 28.9653 45.9995 26.8559C45.9995 24.7465 45.9995 23.2231 45.5971 22.8403C45.1713 22.438 43.6206 22.438 41.2769 22.438Z" fill="black"/>
<path d="M88.7769 22.438H76.4719C74.1281 22.438 72.5774 22.438 72.1516 22.8403C71.7493 23.2231 71.7493 24.7465 71.7493 26.8559C71.7493 28.9653 71.7493 30.4887 72.1516 30.8676C72.5774 31.27 74.1282 31.27 76.4719 31.27H88.7769C91.1246 31.27 92.6714 31.27 93.0972 30.8676C93.4995 30.4848 93.4995 28.9653 93.4995 26.8559C93.4995 24.7465 93.4995 23.2231 93.0972 22.8403C92.6714 22.438 91.1206 22.438 88.7769 22.438Z" fill="black"/>
<path d="M65.8951 22.438H63.2779H63.1021H52.7231C50.3793 22.438 48.8286 22.438 48.4028 22.8403C48.0005 23.2231 48.0005 24.7465 48.0005 26.8559C48.0005 28.9653 48.0005 30.4887 48.4028 30.8676C48.8286 31.27 50.3794 31.27 52.7231 31.27H65.0281C67.3758 31.27 68.9226 31.27 69.3484 30.8676C69.7508 30.4848 69.7508 28.9653 69.7508 26.8559C69.7508 24.7465 69.7508 23.2231 69.3484 22.8403C68.9773 22.4927 67.7505 22.4458 65.8951 22.438Z" fill="black"/>
<path d="M17.5269 22.438H5.22191C2.87811 22.438 1.32741 22.438 0.901608 22.8403C0.499268 23.227 0.499268 24.7465 0.499268 26.8559C0.499268 28.9653 0.499268 30.4887 0.901608 30.8676C1.32739 31.27 2.87821 31.27 5.22191 31.27H17.5229C19.8706 31.27 21.4174 31.27 21.8432 30.8676C22.2455 30.4848 22.2455 28.9653 22.2455 26.8559C22.2455 24.7465 22.2455 23.2231 21.8432 22.8403C21.4213 22.438 19.8706 22.438 17.5269 22.438Z" fill="black"/>
</svg>
