<svg xmlns="http://www.w3.org/2000/svg" width="512" height="512" viewBox="0 0 512 512" version="1.1"><path d="" stroke="none" fill="#080404" fill-rule="evenodd"/><path d="M 132.045 27.034 C 125.093 28.488, 117.747 32.552, 112.686 37.745 C 110.138 40.360, 93.186 61.625, 75.015 85 C 51.821 114.837, 41.320 129.139, 39.771 133 C 38.044 137.302, 37.559 140.569, 37.541 148 L 37.518 157.500 55.832 198.669 C 65.904 221.312, 75.430 241.863, 76.999 244.337 C 80.683 250.147, 88.478 256.271, 95.748 259.067 C 106.637 263.256, 112.804 262.544, 152 252.577 C 175.975 246.480, 188.250 242.878, 192.237 240.769 C 202.677 235.248, 205.407 231.260, 223.239 195.485 L 239.500 162.859 239.817 154.179 C 240.175 144.376, 232.107 77.091, 229.536 68.432 C 226.768 59.113, 218.880 49.996, 209.500 45.276 C 203.521 42.267, 148.833 27.031, 142.229 26.534 C 139.078 26.297, 134.495 26.522, 132.045 27.034 M 363.906 45.419 C 361.929 46.171, 358.884 47.526, 357.139 48.428 C 352.449 50.853, 304.973 90.532, 301.631 94.819 C 294.477 103.998, 291.346 117.371, 293.939 127.672 C 295.308 133.111, 313.592 176.422, 318.240 185.237 C 324.621 197.339, 336.701 205.165, 350 205.814 C 356.857 206.148, 390.798 202.011, 407 198.865 C 419.444 196.449, 431.827 186.423, 435.939 175.434 C 437.083 172.376, 441.460 156.290, 445.665 139.687 C 451.666 115.995, 453.326 107.886, 453.382 102 C 453.482 91.529, 450.396 83.622, 443.160 75.806 C 438.062 70.300, 435.785 68.926, 412.276 57.181 L 386.895 44.500 377.197 44.275 C 370.896 44.129, 366.241 44.530, 363.906 45.419 M 137.216 59.674 C 136.509 59.957, 122.748 77.134, 106.636 97.845 C 68.360 147.042, 70.003 144.823, 69.978 147.327 C 69.966 148.522, 77.666 166.888, 87.088 188.140 C 100.058 217.392, 104.786 227.083, 106.550 228.027 C 108.566 229.106, 113.361 228.162, 142.190 221.010 C 160.510 216.466, 176.400 212.184, 177.500 211.496 C 178.619 210.797, 185.776 197.522, 193.741 181.373 L 207.981 152.500 203.224 115.261 C 199.127 83.197, 198.191 77.757, 196.483 76.114 C 195.245 74.922, 184.454 71.348, 167.772 66.603 C 141.161 59.033, 139.659 58.693, 137.216 59.674 M 374 76.736 C 373.175 77.043, 362.038 86.011, 349.250 96.665 C 329.204 113.367, 326.004 116.413, 326.032 118.768 C 326.049 120.271, 330.904 132.750, 336.821 146.500 C 345.420 166.484, 348.072 171.731, 350.039 172.650 C 352.017 173.573, 357.427 173.082, 377.602 170.145 C 391.408 168.135, 403.402 165.912, 404.255 165.204 C 405.197 164.421, 408.830 151.738, 413.519 132.861 C 419.847 107.380, 421.037 101.377, 420.147 99.422 C 419.358 97.692, 413.648 94.335, 399.281 87.154 C 378.246 76.642, 376.351 75.861, 374 76.736 M 312 241.401 C 278.175 248.238, 248.003 254.768, 244.951 255.912 C 234.041 260.004, 222.997 268.765, 216.640 278.371 C 212.914 284.001, 180.891 353.829, 178.455 361.636 C 177.620 364.311, 176.682 370.325, 176.369 375 C 175.218 392.235, 181.246 408.266, 193.486 420.523 C 199.248 426.293, 207.731 432.128, 241 453.209 C 282.315 479.388, 286.373 481.666, 296 484.071 C 308.072 487.086, 316.616 486.020, 351.959 477.087 C 389.477 467.605, 395.804 464.981, 406.078 454.647 C 413.204 447.479, 464.470 374.720, 469.070 365.246 C 476.749 349.429, 476.699 328.092, 468.947 312.897 C 465.659 306.451, 429.457 252.512, 425.421 248.045 C 415.447 237.004, 399.741 230.005, 383.503 229.365 C 373.914 228.986, 370.955 229.484, 312 241.401 M 317.500 273.925 C 285.600 280.375, 258.375 286.017, 257 286.463 C 252.336 287.976, 246.057 293.047, 243.549 297.325 C 242.176 299.669, 233.981 317.093, 225.339 336.044 C 210.924 367.654, 209.591 371.061, 209.198 377.295 C 208.815 383.368, 209.103 384.768, 211.920 390.488 C 213.815 394.338, 216.550 398.033, 218.785 399.765 C 223.769 403.625, 292.336 447.127, 297.878 449.945 C 306.319 454.237, 309.569 453.920, 342.852 445.560 C 359.546 441.367, 374.846 437.090, 376.852 436.056 C 378.858 435.022, 381.906 432.673, 383.625 430.838 C 388.292 425.853, 437.760 354.746, 440.011 349.787 C 442.340 344.654, 442.596 335.940, 440.584 330.238 C 438.925 325.535, 404.021 272.869, 400.143 269.217 C 395.450 264.797, 388.140 262.010, 381.500 262.109 C 378.151 262.158, 349.872 267.379, 317.500 273.925 M 352 284.687 C 350.625 284.916, 337.868 287.404, 323.652 290.217 C 295.973 295.694, 293.239 296.714, 289.616 302.919 C 286.979 307.432, 287.078 314.772, 289.834 319.232 C 292.388 323.364, 298.640 327, 303.193 327 C 305.074 327, 317.812 324.750, 331.500 322 C 345.188 319.250, 357.793 317, 359.512 317 C 364.687 317, 372.266 319.749, 376.309 323.093 C 378.404 324.826, 383.203 330.841, 386.974 336.461 C 394.667 347.928, 398.462 351.621, 403.529 352.572 C 411.466 354.060, 419.684 349.518, 422.056 342.331 C 424.296 335.543, 422.921 331.316, 414.285 318.435 C 405.878 305.897, 400.396 299.744, 393.248 294.827 C 381.829 286.970, 364.262 282.652, 352 284.687 M 83.803 315.344 C 77.761 317.042, 74.484 319.327, 57.500 333.689 C 39.970 348.512, 37.484 352.348, 37.530 364.500 C 37.559 372.207, 37.834 373.137, 45.030 389.873 C 54.999 413.058, 59.610 418.222, 72.886 421.069 C 76.956 421.942, 80.983 421.675, 95.521 419.567 C 113.833 416.912, 119.205 415.256, 124.770 410.553 C 130.362 405.826, 132.655 400.370, 138.032 379 C 143.933 355.549, 144.169 350.213, 139.698 341.390 C 135.982 334.058, 131.528 330.687, 114.592 322.389 C 97.943 314.232, 92.334 312.948, 83.803 315.344 M 83 355.100 C 69.021 366.714, 69.918 364.082, 75.454 377.238 L 80.234 388.596 91.367 387.040 L 102.500 385.483 106.203 371.028 C 108.240 363.078, 109.815 356.496, 109.703 356.403 C 108.848 355.686, 92.876 348.004, 92.272 348.019 C 91.847 348.029, 87.675 351.216, 83 355.100" stroke="none" fill="#040404" fill-rule="evenodd"/></svg>