<svg width="50" height="47" viewBox="0 0 50 47" fill="none" xmlns="http://www.w3.org/2000/svg">
<path d="M16.7888 0.53339L16.7888 0.533392C13.453 0.729646 11.0889 2.25569 9.71531 4.09794C8.32489 5.96274 7.97698 8.1004 8.56248 9.54136L8.56251 9.54144C8.8386 10.2212 9.7574 10.7452 10.8833 10.8673C12.0104 10.9896 13.0092 10.6733 13.4125 10.0712L13.4125 10.0711C14.9223 7.81771 17.0861 6.79052 19.0276 6.80469C20.9617 6.81881 22.71 7.88454 23.1953 9.8101L16.7888 0.53339ZM16.7888 0.53339C19.8993 0.350222 22.4962 0.914357 24.3522 2.36197C26.1948 3.79911 27.393 6.17487 27.5733 9.80721L27.5733 9.80751M16.7888 0.53339L27.5733 9.80751M27.5733 9.80751C27.7117 12.561 26.0479 14.8434 23.7678 16.4848C21.4861 18.1273 18.692 19.0466 16.8037 19.1065L16.8036 19.1065M27.5733 9.80751L16.8036 19.1065M16.8036 19.1065C15.98 19.1328 15.5903 18.9782 15.4394 18.849M16.8036 19.1065L15.4394 18.849M15.4394 18.849C15.3758 18.7944 15.3534 18.7447 15.3451 18.6965M15.4394 18.849L15.3451 18.6965M15.3451 18.6965C15.3354 18.6404 15.3398 18.5507 15.3904 18.4227M15.3451 18.6965L15.3904 18.4227M15.3904 18.4227C15.4946 18.1588 15.7613 17.822 16.1943 17.5017M15.3904 18.4227L16.1943 17.5017M16.1943 17.5017C16.6194 17.1873 17.1714 16.9143 17.7943 16.7581M16.1943 17.5017L17.7943 16.7581M17.7943 16.7581C19.0055 16.4544 20.5286 15.534 21.6578 14.3218M17.7943 16.7581L21.6578 14.3218M21.6578 14.3218C22.7812 13.1158 23.6212 11.4992 23.1953 9.81018L21.6578 14.3218Z" fill="black" stroke="black"/>
<path d="M25.0346 9.63198L25.1927 9.91963L25.5195 9.88894C26.8123 9.76752 28.1897 9.69548 29.6937 9.69548C36.6589 9.69548 41.5972 10.9843 44.7901 13.5616C47.9594 16.1198 49.5 20.024 49.5 25.4857C49.5 30.4688 48.2002 34.14 45.5736 36.6872L45.489 36.7693L45.4499 36.8805C45.0609 37.9887 44.193 40.282 43.0296 42.2899C42.4471 43.2952 41.804 44.2053 41.127 44.858C40.4442 45.5163 39.7843 45.8588 39.1608 45.8588C38.3522 45.8588 37.7989 45.3784 37.405 44.5098C37.0044 43.6263 36.8227 42.4361 36.7608 41.2725L36.7313 40.7181L36.1831 40.8052C34.2445 41.1133 32.0962 41.2774 29.6951 41.2774C27.8071 41.2774 26.1059 41.1742 24.5506 40.9827L24.1049 40.9278L24.0026 41.3652C23.7198 42.575 23.3304 43.7327 22.8041 44.5764C22.2766 45.4221 21.6761 45.8588 20.979 45.8588C20.3136 45.8588 19.6922 45.5375 19.1054 44.9541C18.5163 44.3684 17.9979 43.552 17.5557 42.6543C16.6723 40.861 16.1462 38.8549 15.9552 38.0453L15.9161 37.8797L15.7842 37.7723C13.0995 35.5866 11.7434 32.3105 11.4232 27.757L11.3906 27.293L10.9254 27.2921C7.9631 27.2864 5.34551 27.1838 3.46539 26.3209C2.54428 25.8981 1.81547 25.2982 1.3109 24.4403C0.8033 23.5773 0.5 22.4145 0.5 20.8316C0.5 17.6532 2.40512 13.8983 5.10637 10.9138C7.81576 7.92021 11.1874 5.85248 13.986 5.85248C16.3293 5.85248 18.6696 5.99746 20.6467 6.55541C22.6205 7.11242 24.1721 8.06297 25.0346 9.63198Z" fill="white" stroke="black"/>
<path d="M7.8916 17.4913C7.8916 18.4081 7.16641 19.1334 6.2937 19.1334C5.42099 19.1334 4.6958 18.4081 4.6958 17.4913C4.6958 16.5744 5.42099 15.8491 6.2937 15.8491C7.16641 15.8491 7.8916 16.5744 7.8916 17.4913Z" fill="black" stroke="black"/>
<path d="M25.6707 12.294L25.6707 12.2941C25.4477 14.0246 24.0744 15.2065 22.5884 15.898C21.0956 16.5926 19.3445 16.8656 18.1096 16.685L25.6707 12.294ZM25.6707 12.294C25.9239 10.3263 24.6957 8.67519 22.9096 7.92527C21.1153 7.17188 18.7303 7.29801 16.5018 8.815L16.5018 8.81505M25.6707 12.294L16.5018 8.81505M16.5018 8.81505C16.1996 9.02085 15.5963 9.19102 14.7854 9.26851M16.5018 8.81505L14.7854 9.26851M30.0842 5.97532C29.2091 4.0463 27.3492 2.63299 24.3993 1.61661C21.2437 0.529361 17.7357 1.02691 14.896 2.3721C12.0346 3.72759 9.98482 5.8748 9.58181 7.95512L30.0842 5.97532ZM30.0842 5.97532C30.9633 7.9134 30.9056 10.4958 29.7304 13.9782M30.0842 5.97532L29.7304 13.9782M29.7304 13.9782C28.8517 16.5821 26.4773 18.0622 23.7639 18.7144M29.7304 13.9782L23.7639 18.7144M23.7639 18.7144C21.0485 19.367 18.1212 19.1543 16.3462 18.4897L23.7639 18.7144ZM14.7854 9.26851C13.9971 9.34384 13.0892 9.32484 12.2419 9.21233M14.7854 9.26851L12.2419 9.21233M12.2419 9.21233C11.3866 9.09877 10.635 8.89539 10.1363 8.62742M12.2419 9.21233L10.1363 8.62742M10.1363 8.62742C9.61534 8.34747 9.55132 8.11322 9.58178 7.95528L10.1363 8.62742ZM16.3459 18.4897C15.5732 18.1999 15.2653 17.9069 15.1707 17.7254C15.1303 17.648 15.128 17.5915 15.138 17.5434C15.1495 17.4879 15.186 17.4074 15.2786 17.3092C15.4699 17.1062 15.8383 16.8962 16.356 16.7645C16.8642 16.6352 17.4751 16.5924 18.1095 16.685L16.3459 18.4897Z" fill="black" stroke="black"/>
</svg>
